<svg width="32" height="32" viewBox="0 0 32 32" fill="none" xmlns="http://www.w3.org/2000/svg">
<path d="M6.22222 4H0.888889C0.4 4 0 4.45 0 5V27C0 27.55 0.4 28 0.888889 28H6.22222C6.71111 28 7.11111 27.55 7.11111 27V5C7.11111 4.45 6.71111 4 6.22222 4ZM5.33333 10H1.77778V8H5.33333V10Z" fill="#626262"/>
<path d="M15.1111 4H9.7778C9.28892 4 8.88892 4.45 8.88892 5V27C8.88892 27.55 9.28892 28 9.7778 28H15.1111C15.6 28 16 27.55 16 27V5C16 4.45 15.6 4 15.1111 4ZM14.2222 10H10.6667V8H14.2222V10Z" fill="#626262"/>
<path d="M21.2515 5.546L16.4889 8.246C16.2791 8.36597 16.1199 8.57429 16.046 8.82562C15.9721 9.07695 15.9894 9.35096 16.0942 9.588L24.0942 27.448C24.2008 27.684 24.386 27.863 24.6094 27.9462C24.8328 28.0293 25.0764 28.0099 25.2871 27.892L30.0497 25.192C30.2595 25.072 30.4187 24.8637 30.4926 24.6124C30.5665 24.361 30.5492 24.087 30.4444 23.85L22.4444 5.99C22.3378 5.75401 22.1526 5.57496 21.9292 5.49181C21.7058 5.40866 21.4622 5.42813 21.2515 5.546V5.546Z" fill="#626262"/>
<path d="M25.7778 27C25.7778 27.2652 25.6841 27.5196 25.5174 27.7071C25.3507 27.8946 25.1246 28 24.8889 28C24.6531 28 24.427 27.8946 24.2603 27.7071C24.0936 27.5196 24 27.2652 24 27C24 26.7348 24.0936 26.4804 24.2603 26.2929C24.427 26.1054 24.6531 26 24.8889 26C25.1246 26 25.3507 26.1054 25.5174 26.2929C25.6841 26.4804 25.7778 26.7348 25.7778 27Z" fill="#626262"/>
</svg>
