<svg width="700" height="700" viewBox="0 0 700 700" fill="none" xmlns="http://www.w3.org/2000/svg">
<path d="M136.111 87.5H19.4444C8.75 87.5 0 97.3437 0 109.375V590.625C0 602.656 8.75 612.5 19.4444 612.5H136.111C146.806 612.5 155.556 602.656 155.556 590.625V109.375C155.556 97.3437 146.806 87.5 136.111 87.5ZM116.667 218.75H38.8889V175H116.667V218.75Z" fill="#626262"/>
<path d="M330.556 87.5H213.889C203.195 87.5 194.445 97.3437 194.445 109.375V590.625C194.445 602.656 203.195 612.5 213.889 612.5H330.556C341.25 612.5 350 602.656 350 590.625V109.375C350 97.3437 341.25 87.5 330.556 87.5ZM311.111 218.75H233.333V175H311.111V218.75Z" fill="#626262"/>
<path d="M464.878 121.319L360.694 180.381C356.106 183.006 352.624 187.563 351.007 193.06C349.39 198.558 349.769 204.552 352.061 209.738L527.061 600.425C529.394 605.587 533.445 609.504 538.332 611.323C543.219 613.142 548.546 612.716 553.156 610.137L657.339 551.075C661.927 548.451 665.409 543.894 667.026 538.396C668.643 532.898 668.264 526.904 665.972 521.719L490.972 131.031C488.639 125.869 484.589 121.952 479.702 120.133C474.815 118.314 469.487 118.74 464.878 121.319V121.319Z" fill="#626262"/>
<path d="M563.889 590.625C563.889 596.427 561.84 601.991 558.194 606.093C554.547 610.195 549.601 612.5 544.444 612.5C539.287 612.5 534.342 610.195 530.695 606.093C527.049 601.991 525 596.427 525 590.625C525 584.823 527.049 579.259 530.695 575.157C534.342 571.055 539.287 568.75 544.444 568.75C549.601 568.75 554.547 571.055 558.194 575.157C561.84 579.259 563.889 584.823 563.889 590.625Z" fill="#626262"/>
</svg>
